PathFileType	4	(X/Y/Z)	G:\マイドライブ\biomec\experimentalData\240725\SJ1.trc
DataRate	CameraRate	NumFrames	NumMarkers	Units	OrigDataRate	OrigDataStartFrame	OrigNumFrames
200.00	200.00	      4	52	mm	200.00	1	      2292
Frame#	Time	handR			wrRI			wrRO			elbRI			elbRO			shRF			shRU			shRB			handL			wrLI			wrLO			elbLI			elbLO			shLF			shLU			shLB			toeR			baRI			baRO			heelR			anRI			anRO			knRI			knRO			troR			toeL			baLI			baLO			heelL			anLI			anLO			knLI			knLO			troL			head			earR			earL			clav			c7			ribR			ribL			xiph			ASISR			ASISL			PSISR			PSISL			t8			t11			L1			L3			LS			COX			
		X1	Y1	Z1	X2	Y2	Z2	X3	Y3	Z3	X4	Y4	Z4	X5	Y5	Z5	X6	Y6	Z6	X7	Y7	Z7	X8	Y8	Z8	X9	Y9	Z9	X10	Y10	Z10	X11	Y11	Z11	X12	Y12	Z12	X13	Y13	Z13	X14	Y14	Z14	X15	Y15	Z15	X16	Y16	Z16	X17	Y17	Z17	X18	Y18	Z18	X19	Y19	Z19	X20	Y20	Z20	X21	Y21	Z21	X22	Y22	Z22	X23	Y23	Z23	X24	Y24	Z24	X25	Y25	Z25	X26	Y26	Z26	X27	Y27	Z27	X28	Y28	Z28	X29	Y29	Z29	X30	Y30	Z30	X31	Y31	Z31	X32	Y32	Z32	X33	Y33	Z33	X34	Y34	Z34	X35	Y35	Z35	X36	Y36	Z36	X37	Y37	Z37	X38	Y38	Z38	X39	Y39	Z39	X40	Y40	Z40	X41	Y41	Z41	X42	Y42	Z42	X43	Y43	Z43	X44	Y44	Z44	X45	Y45	Z45	X46	Y46	Z46	X47	Y47	Z47	X48	Y48	Z48	X49	Y49	Z49	X50	Y50	Z50	X51	Y51	Z51	X52	Y52	Z52	

1	0.000	391.44785	1350.44958	1049.05786	325.81635	1376.59119	1017.53027	366.35559	1429.38733	1045.73364	223.83171	1545.41382	1168.10229	176.39343	1482.98254	1185.61230	377.02078	1368.44128	1391.26147	353.07471	1476.07898	1395.04419	347.16702	1419.97559	1425.18958	682.71802	1339.62988	1052.91736	750.70215	1366.96045	1017.69940	705.85986	1417.12024	1050.77429	856.36987	1520.37048	1166.75818	906.70642	1453.74805	1176.65967	698.24384	1353.63293	1386.93433	735.09387	1400.96594	1419.70544	720.73987	1466.83289	1382.72693	391.95410	1247.97595	52.79488	437.17548	1330.29358	37.41364	315.24228	1351.49805	45.85434	402.47757	1533.84717	43.99370	438.10568	1449.97925	116.32167	345.16425	1467.36194	106.87778	457.86975	1435.69641	475.38242	354.12622	1419.40381	481.27728	361.24881	1381.42017	875.52325	705.55573	1246.58984	55.06175	652.24298	1314.27551	55.44559	761.86804	1349.87451	51.23211	683.48376	1532.10364	43.36686	646.13843	1439.33276	132.39326	731.81390	1469.55579	111.73286	615.84259	1439.14160	476.77792	723.21375	1435.26624	490.05597	706.31079	1383.71228	865.16168	546.65930	1422.85144	1694.49353	459.43192	1328.62524	1554.11975	616.50952	1319.50269	1552.06152	538.61859	1332.83765	1379.80371	548.63733	1443.57727	1470.03577	431.23294	1362.38562	1099.21021	649.99768	1355.09412	1095.34778	537.21350	1315.66638	1222.07495	430.01559	1318.33618	966.60211	650.27155	1324.51416	971.18225	478.43298	1493.79626	995.30884	600.53503	1491.88037	996.45398	549.72461	1531.15955	1265.82910	547.34912	1515.26746	1134.81543	547.63135	1499.53735	1075.49182	541.81793	1494.63062	1026.85254	541.33545	1503.77185	988.68939	539.47815	1524.17700	888.18811	
2	0.005	391.47580	1350.44971	1049.06079	325.85144	1376.54565	1017.52710	366.40753	1429.43811	1045.69373	223.87172	1545.44275	1168.06689	176.46185	1482.99890	1185.57678	377.03189	1368.49304	1391.28833	353.13956	1476.14417	1395.03430	347.38287	1420.16174	1425.00244	682.72845	1339.62512	1052.98035	750.71777	1366.91174	1017.75800	705.90656	1417.10583	1050.82788	856.46570	1520.35693	1166.75659	906.74695	1453.67847	1176.67664	698.24628	1353.68201	1386.93518	735.10278	1401.00098	1419.71716	720.78424	1466.88171	1382.71802	391.95270	1247.96509	52.79350	437.16211	1330.33569	37.40698	315.25925	1351.48669	45.86237	402.46442	1533.83777	44.02959	438.11093	1450.04797	116.32578	345.16339	1467.36096	106.86777	457.86752	1435.65625	475.36102	354.15228	1419.37219	481.26639	361.26175	1381.40625	875.51648	705.55011	1246.58752	55.05647	652.23920	1314.27991	55.44494	761.80475	1349.86890	51.23307	683.46649	1532.10364	43.36219	646.13965	1439.32239	132.39862	731.82678	1469.60425	111.77879	615.88354	1439.10278	476.76059	723.21930	1435.25793	490.04266	706.36951	1383.80505	865.11774	546.61487	1422.89868	1694.48193	459.40912	1328.73938	1554.09607	616.50568	1319.54065	1552.09729	538.62872	1332.88403	1379.80530	548.66589	1443.62708	1470.02173	431.29547	1362.37964	1099.20325	650.03778	1355.13220	1095.40564	537.25458	1315.70996	1222.09033	430.05060	1318.32178	966.60858	650.30261	1324.52112	971.18677	478.42880	1493.79504	995.28253	600.54388	1491.90173	996.44690	549.73822	1531.21167	1265.81238	547.35107	1515.31018	1134.77148	547.65887	1499.52100	1075.48938	541.86035	1494.63574	1026.84290	541.35687	1503.76758	988.67993	539.47925	1524.17065	888.17456	
3	0.010	391.53494	1350.45325	1049.04260	325.86044	1376.50256	1017.52985	366.41922	1429.42004	1045.66687	223.92415	1545.46082	1167.99902	176.47354	1483.04028	1185.55981	377.06274	1368.54492	1391.27063	353.16614	1476.20190	1395.01624	347.21179	1420.09570	1425.18481	682.74249	1339.65442	1053.05566	750.71210	1366.88635	1017.80389	705.95313	1417.09399	1050.86694	856.55347	1520.33606	1166.76147	906.78027	1453.63318	1176.68860	698.25690	1353.74646	1386.92383	735.13135	1401.04309	1419.69836	720.80377	1466.91479	1382.69128	391.94257	1247.97327	52.81901	437.15631	1330.28735	37.44347	315.26694	1351.47681	45.86306	402.49692	1533.83191	44.00851	438.11893	1450.02185	116.25747	345.15924	1467.35510	106.87002	457.87155	1435.64795	475.37872	354.14859	1419.34058	481.27988	361.29352	1381.37769	875.51324	705.55841	1246.59741	55.06701	652.22192	1314.25793	55.47913	761.84601	1349.89771	51.25292	683.46967	1532.08447	43.37401	646.10883	1439.33765	132.40810	731.86005	1469.55432	111.77850	615.88562	1439.09985	476.79578	723.23016	1435.26599	490.03986	706.41229	1383.85242	865.10297	546.58246	1422.94751	1694.48669	459.41147	1328.81299	1554.06030	616.47632	1319.58167	1552.11487	538.64392	1332.93567	1379.81726	548.72034	1443.68604	1470.01379	431.31650	1362.37817	1099.18713	650.06708	1355.15234	1095.43213	537.30164	1315.73376	1222.08521	430.09042	1318.31714	966.62024	650.34497	1324.52368	971.20801	478.47421	1493.78650	995.26483	600.57312	1491.89917	996.44208	549.74585	1531.23877	1265.78699	547.38422	1515.32874	1134.78137	547.66553	1499.54285	1075.47449	541.86609	1494.64429	1026.83728	541.39905	1503.76294	988.64459	539.47552	1524.16296	888.15948	
4	0.015	391.56479	1350.43298	1049.02930	325.91779	1376.47314	1017.51062	366.43213	1429.42236	1045.62830	223.97202	1545.48145	1167.96362	176.54152	1483.05518	1185.53369	377.07529	1368.59119	1391.28943	353.18228	1476.26184	1395.01648	347.22089	1420.14893	1425.18115	682.75342	1339.65381	1053.10156	750.74109	1366.87122	1017.86517	705.96899	1417.09106	1050.90833	856.63354	1520.30261	1166.74573	906.80847	1453.58350	1176.70544	698.27319	1353.79492	1386.91919	735.16370	1401.08826	1419.69958	720.82556	1466.96594	1382.68018	391.95786	1247.96533	52.81933	437.17523	1330.24023	37.44221	315.28461	1351.49683	45.85918	402.45340	1533.85486	43.98269	438.12195	1449.97827	116.32417	345.16275	1467.36426	106.87450	457.92087	1435.61206	475.36423	354.18713	1419.30615	481.28571	361.33368	1381.34998	875.49146	705.52667	1246.59814	55.07446	652.21381	1314.26794	55.47956	761.85577	1349.88818	51.24350	683.45721	1532.08801	43.37169	646.11035	1439.33643	132.38478	731.82404	1469.58801	111.77226	615.90503	1439.09521	476.78180	723.25555	1435.26111	490.04562	706.42108	1383.77393	865.10608	546.53516	1423.00562	1694.48010	459.40631	1328.91187	1554.04028	616.47980	1319.59692	1552.12927	538.68475	1332.99487	1379.80933	548.72272	1443.72998	1470.00024	431.36362	1362.38098	1099.22375	650.07391	1355.20544	1095.44067	537.31158	1315.76453	1222.08142	430.12885	1318.28088	966.59039	650.37000	1324.52808	971.21869	478.45993	1493.78821	995.23413	600.59015	1491.89648	996.42639	549.75342	1531.27026	1265.75879	547.39032	1515.34961	1134.75256	547.67291	1499.57117	1075.46277	541.86212	1494.64343	1026.81787	541.40198	1503.76831	988.63635	539.49054	1524.13721	888.13763	
